<svg width="500" height="500" viewBox="0 0 500 500" xmlns="http://www.w3.org/2000/svg"><title>facebook-logo</title><g fill="none" fill-rule="evenodd"><path d="M441.266 35H58.7172C45.6149 35.007 34.9977 45.6317 35 58.734v382.5488c.007 13.1023 10.6317 23.7195 23.734 23.7172h205.9633V298.711h-55.8496v-65.088h55.8496v-47.9004c0-55.539 33.917-85.7817 83.4636-85.7817 23.7298 0 44.1254 1.7679 50.0715 2.5573v58.0584h-34.169c-26.959 0-32.1786 12.8119-32.1786 31.6118v41.4546h64.4538l-8.3985 65.088h-56.0553V465H441.266A23.7298 23.7298 0 0 0 465 441.266V58.7172C464.993 45.6149 454.3683 34.9977 441.266 35z" fill="#4267B2"/><path d="M331.8848 465V298.711h56.0595l8.3985-65.088h-64.458v-41.4546c0-18.8 5.2196-31.6118 32.1786-31.6118h34.169v-58.0584c-5.946-.7894-26.3417-2.5573-50.0715-2.5573-49.5507 0-83.4636 30.2344-83.4636 85.7817v47.9004h-55.8496v65.088h55.8496V465h67.1875z" fill="#FFF"/><path d="M441.266 35H58.7172C45.6149 35.007 34.9977 45.6317 35 58.734v382.5488c.007 13.1023 10.6317 23.7195 23.734 23.7172h205.9633V298.711h-55.8496v-65.088h55.8496v-47.9004c0-55.539 33.917-85.7817 83.4636-85.7817 23.7298 0 44.1254 1.7679 50.0715 2.5573v58.0584h-34.169c-26.959 0-32.1786 12.8119-32.1786 31.6118v41.4546h64.4538l-8.3985 65.088h-56.0553V465H441.266A23.7298 23.7298 0 0 0 465 441.266V58.7172C464.993 45.6149 454.3683 34.9977 441.266 35z" fill="#4267B2"/><path d="M331.8848 465V298.711h56.0595l8.3985-65.088h-64.458v-41.4546c0-18.8 5.2196-31.6118 32.1786-31.6118h34.169v-58.0584c-5.946-.7894-26.3417-2.5573-50.0715-2.5573-49.5507 0-83.4636 30.2344-83.4636 85.7817v47.9004h-55.8496v65.088h55.8496V465h67.1875z" fill="#FFF"/><path d="M35 35h430v430H35z"/></g></svg>