<svg width="213" height="202" viewBox="0 0 213 202" fill="none" xmlns="http://www.w3.org/2000/svg">
<circle cx="106" cy="101" r="101" fill="url(#paint0_linear_2_8)"/>
<ellipse cx="106" cy="101.5" rx="75" ry="74.5" fill="white"/>
<rect y="91" width="35" height="10" rx="5" fill="white"/>
<rect x="178" y="96" width="35" height="10" rx="5" fill="white"/>
<path d="M37.8417 56.3489L34.5646 47.6701L36.9045 45.1442C37.3524 44.6607 37.7819 44.374 38.1931 44.2841C38.6047 44.1896 38.9774 44.2745 39.311 44.5387C39.6452 44.7983 39.922 45.2154 40.1413 45.7899C40.36 46.369 40.4676 46.9707 40.4639 47.595C40.4608 48.2148 40.3448 48.8211 40.1161 49.414C39.8873 50.0069 39.5441 50.5504 39.0866 51.0443L37.5952 52.6542L37.0382 51.1857L38.3269 49.7945C38.5701 49.5319 38.7478 49.2546 38.86 48.9625C38.9727 48.6659 39.0268 48.3669 39.0223 48.0655C39.0165 47.7617 38.9589 47.4679 38.8497 47.1842C38.7396 46.8934 38.6048 46.683 38.4453 46.5529C38.2858 46.4228 38.1046 46.3839 37.9015 46.4361C37.699 46.4837 37.477 46.6378 37.2357 46.8983L36.3901 47.8111L39.0956 54.9953L37.8417 56.3489Z" fill="black"/>
<path d="M47.1364 35.1881L49.5981 44.1132L48.2089 45.3276L45.7472 36.4026L47.1364 35.1881Z" fill="black"/>
<path d="M55.8755 38.5275L54.2128 29.4548L57.0431 27.494C57.5848 27.1187 58.071 26.9299 58.5017 26.9278C58.9337 26.9214 59.2927 27.0804 59.5787 27.4049C59.866 27.725 60.0659 28.1856 60.1784 28.7867C60.2894 29.392 60.2843 29.9964 60.163 30.5996C60.0431 31.1986 59.8122 31.7612 59.4703 32.2876C59.1285 32.814 58.6808 33.269 58.1274 33.6524L56.3234 34.9022L56.0396 33.3664L57.5983 32.2865C57.8926 32.0827 58.1236 31.851 58.2915 31.5916C58.4608 31.3279 58.5716 31.0498 58.6238 30.7573C58.6751 30.4621 58.6726 30.166 58.6161 29.869C58.5601 29.565 58.4641 29.3336 58.3281 29.1748C58.1922 29.0161 58.0171 28.941 57.8029 28.9496C57.5902 28.9539 57.3378 29.0571 57.0459 29.2594L56.0231 29.968L57.3923 37.4767L55.8755 38.5275Z" fill="black"/>
<path d="M71.3571 21.9334C71.2867 21.5818 71.1297 21.3616 70.8862 21.2728C70.6453 21.1828 70.3266 21.2368 69.9301 21.4348C69.6607 21.5694 69.4369 21.7276 69.2586 21.9094C69.0796 22.0886 68.9477 22.2798 68.8629 22.483C68.7799 22.6823 68.7467 22.8814 68.7633 23.0804C68.772 23.2463 68.8128 23.3744 68.8858 23.4648C68.9614 23.5539 69.06 23.6145 69.1816 23.6466C69.3051 23.6747 69.4453 23.6835 69.6023 23.6732C69.7586 23.6601 69.9218 23.6343 70.0919 23.5958L70.8067 23.4429C71.1545 23.362 71.476 23.3252 71.771 23.3326C72.0686 23.3386 72.3306 23.3981 72.5571 23.5108C72.7861 23.6223 72.9704 23.7964 73.1099 24.033C73.2495 24.2696 73.3352 24.578 73.367 24.9582C73.4107 25.518 73.3298 26.0628 73.1243 26.5925C72.918 27.1194 72.5988 27.6084 72.1664 28.0595C71.7334 28.5078 71.1993 28.8907 70.5639 29.208C69.9336 29.5229 69.3759 29.6839 68.8907 29.691C68.4055 29.6982 68.0143 29.5455 67.7169 29.233C67.4214 28.9165 67.2396 28.4333 67.1713 27.7836L68.7687 26.9858C68.8092 27.2842 68.9046 27.5027 69.0547 27.6412C69.2067 27.7757 69.3998 27.8386 69.634 27.8299C69.8676 27.8184 70.1267 27.7416 70.4113 27.5994C70.6934 27.4585 70.9331 27.2893 71.1304 27.0918C71.3302 26.8929 71.4798 26.6805 71.5791 26.4545C71.6784 26.2286 71.7187 26.0058 71.7 25.7862C71.6846 25.5803 71.6193 25.4335 71.5042 25.3456C71.3891 25.2577 71.2277 25.2145 71.0203 25.216C70.8147 25.2135 70.5672 25.2442 70.278 25.3083L69.4063 25.4837C68.7341 25.6246 68.192 25.5905 67.7801 25.3817C67.3682 25.1728 67.1325 24.732 67.0729 24.0594C67.0305 23.505 67.1194 22.9578 67.3395 22.4178C67.5615 21.8737 67.8858 21.376 68.3124 20.9247C68.7409 20.4693 69.2397 20.0995 69.809 19.8151C70.3885 19.5257 70.904 19.3904 71.3556 19.4093C71.8065 19.4254 72.17 19.5811 72.4461 19.8764C72.7223 20.1717 72.8866 20.5939 72.9392 21.1432L71.3571 21.9334Z" fill="black"/>
<path d="M95.8861 14.5598L94.0818 14.9255C94.0676 14.6809 94.0194 14.4719 93.9373 14.2986C93.8551 14.1224 93.7417 13.9813 93.5972 13.8753C93.4555 13.7688 93.2872 13.7007 93.0923 13.6711C92.8972 13.6387 92.6813 13.6465 92.4447 13.6945C91.988 13.7871 91.5785 13.9881 91.2159 14.2976C90.8534 14.6071 90.5593 15.0092 90.3336 15.504C90.1076 15.9959 89.9699 16.5635 89.9205 17.2068C89.872 17.8268 89.9185 18.3283 90.0601 18.7112C90.2017 19.0941 90.4187 19.3609 90.7112 19.5118C91.0063 19.6592 91.3612 19.6909 91.7761 19.6068C92.0322 19.5548 92.2732 19.4729 92.499 19.3609C92.7245 19.2461 92.9269 19.1072 93.1061 18.9443C93.2878 18.7779 93.4423 18.5897 93.5695 18.3797C93.6995 18.1692 93.7956 17.941 93.8576 17.6953L95.6744 17.327C95.5927 17.7494 95.4459 18.1706 95.2339 18.5907C95.0247 19.0101 94.7552 19.4015 94.4254 19.7649C94.0953 20.1253 93.7117 20.4363 93.2745 20.6976C92.8373 20.9589 92.35 21.144 91.8126 21.253C91.0358 21.4104 90.3542 21.3644 89.7678 21.1148C89.1842 20.8647 88.7421 20.4233 88.4414 19.7905C88.1408 19.1578 88.0278 18.3446 88.1024 17.3508C88.1796 16.3882 88.4146 15.5375 88.8072 14.7988C89.2024 14.0567 89.7064 13.4523 90.3193 12.9855C90.935 12.5182 91.609 12.2103 92.3413 12.0619C92.8508 11.9586 93.3174 11.936 93.741 11.994C94.1646 12.052 94.5323 12.1876 94.844 12.4008C95.1583 12.6105 95.4051 12.8958 95.5845 13.2566C95.764 13.6175 95.8645 14.0519 95.8861 14.5598Z" fill="black"/>
<path d="M104.317 19.3536L102.34 19.3852L106.953 10.5878L109.331 10.5497L110.738 19.2507L108.761 19.2824L107.818 12.5674L107.749 12.5685L104.317 19.3536ZM104.828 15.9165L109.498 15.8416L109.226 17.2857L104.556 17.3605L104.828 15.9165Z" fill="black"/>
<path d="M118.444 12.6437L118.866 11.1736L125.938 12.3427L125.515 13.8127L122.879 13.3769L120.895 20.343L119.095 20.0455L121.08 13.0795L118.444 12.6437Z" fill="black"/>
<path d="M139.848 19.9156L138.117 19.2902C138.173 19.0532 138.189 18.8315 138.165 18.625C138.14 18.4157 138.078 18.2227 137.978 18.0458C137.88 17.8699 137.748 17.7158 137.581 17.5835C137.414 17.4484 137.217 17.3398 136.99 17.2578C136.551 17.0995 136.125 17.0682 135.71 17.1637C135.295 17.2592 134.915 17.4783 134.571 17.8209C134.228 18.1607 133.942 18.6188 133.715 19.1951C133.495 19.7502 133.395 20.2452 133.414 20.68C133.433 21.1149 133.553 21.4815 133.774 21.7798C133.998 22.0763 134.309 22.2965 134.707 22.4403C134.953 22.5291 135.194 22.5816 135.429 22.5978C135.665 22.6112 135.887 22.5897 136.095 22.5331C136.306 22.4747 136.499 22.3812 136.674 22.2526C136.851 22.1251 137.002 21.9628 137.128 21.7658L138.871 22.3955C138.678 22.7476 138.426 23.0636 138.115 23.3435C137.807 23.6244 137.453 23.8466 137.052 24.0101C136.652 24.1709 136.218 24.2564 135.749 24.2667C135.28 24.277 134.788 24.189 134.273 24.0027C133.527 23.7335 132.925 23.3245 132.467 22.776C132.012 22.2284 131.738 21.5774 131.647 20.823C131.555 20.0687 131.684 19.2458 132.034 18.3545C132.377 17.4937 132.831 16.8225 133.395 16.3409C133.962 15.8574 134.588 15.5614 135.274 15.4528C135.962 15.3452 136.657 15.4183 137.36 15.6722C137.849 15.8488 138.276 16.078 138.642 16.3597C139.008 16.6414 139.301 16.9658 139.522 17.3328C139.745 17.698 139.887 18.0979 139.946 18.5324C140.006 18.9668 139.973 19.4279 139.848 19.9156Z" fill="black"/>
<path d="M144.693 28.4512L148.639 20.8697L150.239 21.7879L148.612 24.9166L151.861 26.7805L153.489 23.6518L155.085 24.5679L151.139 32.1494L149.542 31.2333L151.171 28.1006L147.922 26.2366L146.293 29.3694L144.693 28.4512Z" fill="black"/>
<path d="M157.124 36.4741L161.754 29.3803L166.354 33.0435L165.545 34.2781L162.388 31.7643L161.288 33.4573L164.208 35.7827L163.399 37.0173L160.478 34.6919L159.377 36.3889L162.547 38.9133L161.738 40.1479L157.124 36.4741Z" fill="black"/>
<path d="M167.796 45.9345L173.078 39.3763L175.457 41.865C175.912 42.3414 176.23 42.8351 176.411 43.3461C176.593 43.8592 176.638 44.3653 176.548 44.8644C176.461 45.3631 176.242 45.831 175.893 46.2683C175.542 46.7036 175.154 46.9859 174.729 47.1153C174.306 47.2468 173.862 47.2255 173.399 47.0515C172.939 46.877 172.477 46.5475 172.014 46.0629L170.421 44.3966L171.325 43.289L172.709 44.7367C172.952 44.9913 173.184 45.1669 173.404 45.2634C173.624 45.3599 173.832 45.3764 174.026 45.3128C174.223 45.2512 174.408 45.1118 174.58 44.8946C174.757 44.6745 174.865 44.4493 174.904 44.2189C174.945 43.9861 174.915 43.747 174.816 43.5018C174.719 43.2542 174.548 43.003 174.305 42.7484L173.445 41.849L169.071 47.2682L167.796 45.9345ZM173.454 46.3544L172.552 50.9089L171.144 49.4366L172.079 44.916L173.454 46.3544Z" fill="black"/>
<path d="M184.471 56.7552C184.686 56.4775 184.783 56.171 184.763 55.8357C184.745 55.5027 184.604 55.1582 184.34 54.8021C184.161 54.5602 183.981 54.3849 183.799 54.2763C183.62 54.1653 183.447 54.1164 183.282 54.1294C183.12 54.1423 182.974 54.2137 182.845 54.3436C182.736 54.4457 182.663 54.5647 182.625 54.7006C182.59 54.8388 182.581 54.9883 182.599 55.1489C182.621 55.3096 182.661 55.4793 182.719 55.658C182.779 55.8343 182.85 56.0118 182.932 56.1903L183.27 56.9455C183.439 57.3093 183.569 57.6665 183.661 58.0173C183.754 58.3703 183.8 58.7111 183.798 59.0397C183.797 59.3706 183.74 59.6836 183.626 59.9788C183.512 60.2739 183.331 60.5456 183.085 60.7937C182.72 61.1555 182.325 61.3625 181.9 61.4146C181.476 61.4644 181.041 61.3604 180.594 61.1026C180.149 60.8424 179.715 60.427 179.292 59.8564C178.872 59.2904 178.58 58.7243 178.417 58.1583C178.253 57.5922 178.228 57.0478 178.341 56.5252C178.459 56.0025 178.726 55.521 179.143 55.0806L180.206 56.515C180.017 56.7282 179.901 56.9613 179.856 57.2145C179.815 57.4676 179.836 57.7294 179.919 57.9998C180.003 58.2678 180.14 58.5297 180.329 58.7853C180.517 59.0387 180.71 59.2265 180.909 59.3487C181.108 59.4733 181.301 59.5313 181.487 59.5227C181.672 59.5141 181.836 59.4379 181.978 59.2942C182.112 59.162 182.19 59.0038 182.212 58.8198C182.234 58.6358 182.21 58.4223 182.141 58.1794C182.075 57.9364 181.973 57.6627 181.835 57.3584L181.431 56.4315C181.115 55.7197 180.96 55.064 180.967 54.4642C180.973 53.8644 181.194 53.3431 181.629 52.9002C181.99 52.543 182.389 52.3441 182.826 52.3033C183.267 52.2625 183.71 52.3676 184.155 52.6186C184.603 52.8696 185.017 53.2507 185.396 53.7619C185.782 54.2823 186.042 54.813 186.177 55.3541C186.314 55.8928 186.328 56.4062 186.219 56.8944C186.11 57.3825 185.878 57.8097 185.524 58.176L184.471 56.7552Z" fill="black"/>
<path d="M28.7296 124.725L29.2036 126.737L25.8393 128.842L25.8608 128.933L30.1359 130.694L30.6099 132.705L24.1447 129.86L21.0073 129.993L20.5871 128.21L23.7245 128.077L28.7296 124.725Z" fill="black"/>
<path d="M29.4306 141.608C28.4899 141.751 27.6304 141.71 26.8521 141.486C26.0748 141.264 25.4105 140.899 24.8592 140.39C24.309 139.884 23.9013 139.277 23.6361 138.57C23.3581 137.828 23.2897 137.131 23.431 136.481C23.5733 135.833 23.9233 135.283 24.4811 134.83C25.0416 134.376 25.8084 134.072 26.7815 133.918C27.7229 133.769 28.5828 133.807 29.3611 134.031C30.142 134.255 30.81 134.622 31.365 135.132C31.9227 135.642 32.3345 136.252 32.6007 136.962C32.8767 137.699 32.9423 138.392 32.7973 139.04C32.6533 139.692 32.2992 140.243 31.735 140.695C31.1745 141.149 30.4064 141.454 29.4306 141.608ZM28.9926 139.82C29.5968 139.725 30.0728 139.564 30.4207 139.336C30.7723 139.109 30.9986 138.831 31.0996 138.502C31.2006 138.173 31.1758 137.807 31.0253 137.405C30.8619 136.969 30.6012 136.605 30.2435 136.314C29.8867 136.025 29.451 135.825 28.9365 135.714C28.4256 135.604 27.8528 135.6 27.218 135.702C26.6101 135.795 26.1336 135.955 25.7884 136.183C25.4442 136.413 25.2234 136.694 25.1261 137.025C25.0325 137.357 25.0605 137.723 25.21 138.122C25.3725 138.556 25.6289 138.917 25.9793 139.205C26.3333 139.494 26.7645 139.694 27.2726 139.805C27.7835 139.914 28.3568 139.919 28.9926 139.82Z" fill="black"/>
<path d="M37.2162 146.591L38.0754 148.224L32.4893 149.761C31.8621 149.934 31.2431 149.951 30.6322 149.814C30.0213 149.676 29.4577 149.403 28.9412 148.994C28.4274 148.584 28.0018 148.059 27.6645 147.417C27.3272 146.776 27.1628 146.181 27.1714 145.63C27.1826 145.079 27.3534 144.605 27.6838 144.21C28.0143 143.814 28.4931 143.53 29.1203 143.357L34.7064 141.82L35.5655 143.453L30.1326 144.943C29.8068 145.037 29.5502 145.183 29.3629 145.382C29.177 145.583 29.0731 145.821 29.0513 146.096C29.0295 146.372 29.1013 146.666 29.2666 146.981C29.4333 147.297 29.6512 147.553 29.9204 147.748C30.1908 147.945 30.4872 148.073 30.8093 148.131C31.1329 148.191 31.4575 148.175 31.7833 148.081L37.2162 146.591Z" fill="black"/>
<path d="M30.703 152.528L39.0218 149.262L40.966 152.104C41.3382 152.648 41.5445 153.155 41.5849 153.626C41.6269 154.099 41.5125 154.517 41.2416 154.879C40.9748 155.242 40.5659 155.533 40.0149 155.752C39.4622 155.969 38.917 156.051 38.3793 155.998C37.8431 155.947 37.3343 155.768 36.8526 155.461C36.375 155.154 35.947 154.725 35.5684 154.171L34.2666 152.268L35.6856 151.721L36.8165 153.374C37.0154 153.665 37.2269 153.889 37.4511 154.046C37.6753 154.203 37.9113 154.292 38.1591 154.313C38.4086 154.336 38.6694 154.293 38.9417 154.184C39.2205 154.074 39.4208 153.935 39.5428 153.767C39.6672 153.597 39.7124 153.397 39.6784 153.167C39.6468 152.935 39.5316 152.673 39.3326 152.383L38.63 151.356L31.7448 154.05L30.703 152.528ZM37.1482 154.929L34.5889 158.208L33.4388 156.526L36.0245 153.286L37.1482 154.929Z" fill="black"/>
<path d="M48.7155 165.014C48.8565 164.863 48.9611 164.709 49.0293 164.552C49.1017 164.396 49.1357 164.238 49.1312 164.077C49.1289 163.915 49.0871 163.75 49.0057 163.585C48.9244 163.419 48.8004 163.253 48.6338 163.086C48.3185 162.771 47.9395 162.548 47.4967 162.417C47.0558 162.288 46.5788 162.266 46.0656 162.35C45.5545 162.431 45.0337 162.636 44.5032 162.963C43.9707 163.287 43.5792 163.625 43.3289 163.976C43.0806 164.329 42.9738 164.681 43.0087 165.033C43.0478 165.384 43.2299 165.723 43.5552 166.049C43.8503 166.344 44.1713 166.561 44.5181 166.7C44.867 166.836 45.219 166.89 45.574 166.861C45.9311 166.833 46.2716 166.719 46.5955 166.518L46.8125 166.814L45.2253 165.225L46.4397 164.48L49.0208 167.064L48.0559 167.649C47.3889 168.064 46.7002 168.305 45.9898 168.371C45.2794 168.438 44.5935 168.349 43.9321 168.104C43.2727 167.86 42.683 167.479 42.163 166.958C41.5847 166.379 41.2344 165.774 41.112 165.142C40.9937 164.511 41.104 163.894 41.4428 163.291C41.7857 162.688 42.3588 162.139 43.1621 161.644C43.78 161.264 44.404 160.999 45.0342 160.848C45.6686 160.697 46.2857 160.65 46.8854 160.705C47.4851 160.76 48.048 160.908 48.5742 161.15C49.1023 161.394 49.5692 161.719 49.9748 162.125C50.3242 162.475 50.5856 162.839 50.759 163.217C50.9365 163.595 51.0278 163.971 51.0327 164.345C51.0396 164.721 50.9587 165.079 50.79 165.419C50.6254 165.759 50.3757 166.067 50.0407 166.341L48.7155 165.014Z" fill="black"/>
<path d="M46.9572 171.327L54.0081 165.811L56.7054 167.951C57.2217 168.361 57.5678 168.784 57.7437 169.22C57.9219 169.658 57.9334 170.088 57.7784 170.511C57.6275 170.934 57.3189 171.329 56.8526 171.697C56.3841 172.063 55.8835 172.299 55.3509 172.404C54.8205 172.511 54.2789 172.489 53.7262 172.336C53.1776 172.183 52.6407 171.898 52.1155 171.481L50.3096 170.048L51.5151 169.117L53.084 170.361C53.36 170.58 53.6286 170.732 53.89 170.816C54.1513 170.901 54.4042 170.917 54.6486 170.865C54.8953 170.815 55.1337 170.698 55.3638 170.516C55.6 170.331 55.7522 170.14 55.8206 169.945C55.8908 169.748 55.8761 169.544 55.7763 169.335C55.6784 169.123 55.4914 168.908 55.2155 168.689L54.2407 167.916L48.4027 172.473L46.9572 171.327ZM53.8556 171.744L52.3485 175.604L50.7528 174.338L52.2966 170.507L53.8556 171.744Z" fill="black"/>
<path d="M64.1318 178.145C63.4486 178.814 62.7216 179.291 61.9508 179.575C61.1823 179.86 60.4202 179.966 59.6645 179.892C58.9111 179.82 58.2138 179.584 57.5726 179.184C56.9 178.765 56.4263 178.257 56.1516 177.662C55.8793 177.068 55.8352 176.428 56.0193 175.741C56.2052 175.052 56.6497 174.359 57.3529 173.663C58.0329 172.988 58.7584 172.509 59.5292 172.224C60.3017 171.938 61.0679 171.831 61.8277 171.904C62.5892 171.975 63.2918 172.211 63.9355 172.612C64.6033 173.029 65.0725 173.535 65.3431 174.131C65.6162 174.729 65.6577 175.373 65.4679 176.062C65.282 176.751 64.8367 177.445 64.1318 178.145ZM62.7011 176.997C63.1381 176.565 63.4303 176.156 63.5777 175.77C63.7292 175.384 63.7474 175.031 63.6324 174.713C63.5174 174.394 63.2779 174.121 62.9139 173.894C62.5185 173.647 62.0872 173.515 61.6199 173.498C61.155 173.482 60.6789 173.582 60.1915 173.799C59.7083 174.016 59.2378 174.352 58.78 174.808C58.3389 175.241 58.0455 175.649 57.8998 176.032C57.7565 176.417 57.7444 176.768 57.8634 177.086C57.9866 177.404 58.229 177.675 58.5906 177.9C58.9835 178.145 59.4096 178.277 59.8687 178.297C60.3319 178.315 60.8044 178.217 61.2859 178.003C61.7692 177.787 62.2409 177.451 62.7011 176.997Z" fill="black"/>
<path d="M65.1888 183.352L68.3402 175.217L70.1754 176.051L67.7261 181.585L67.792 181.615L73.0078 177.337L74.5791 178.051L72.2556 183.656L72.3255 183.688L77.4114 179.337L79.2466 180.171L71.5479 186.24L69.9106 185.496L71.951 180.169L71.889 180.141L66.8261 184.095L65.1888 183.352Z" fill="black"/>
<path d="M78.5123 181.092L79.2818 179.74L86.1267 181.866L85.3572 183.218L82.8056 182.426L79.178 188.834L77.4363 188.293L81.0639 181.884L78.5123 181.092Z" fill="black"/>
<path d="M84.9336 190.437L88.352 182.219L90.1629 182.573L88.7537 185.964L92.4298 186.683L93.8391 183.292L95.6458 183.645L92.2274 191.863L90.4206 191.51L91.8309 188.115L88.1547 187.396L86.7445 190.791L84.9336 190.437Z" fill="black"/>
<path d="M104.484 184.096L102.518 192.744L100.675 192.664L102.641 184.015L104.484 184.096Z" fill="black"/>
<path d="M112.864 186.422C112.864 186.067 112.75 185.797 112.522 185.613C112.296 185.429 111.962 185.345 111.519 185.363C111.218 185.375 110.958 185.428 110.74 185.522C110.522 185.614 110.349 185.736 110.221 185.889C110.096 186.039 110.021 186.209 109.997 186.401C109.972 186.558 109.987 186.694 110.042 186.808C110.101 186.923 110.188 187.02 110.305 187.101C110.424 187.178 110.565 187.245 110.726 187.301C110.887 187.355 111.058 187.399 111.239 187.434L111.995 187.592C112.364 187.662 112.698 187.762 112.996 187.893C113.296 188.023 113.55 188.187 113.756 188.387C113.966 188.586 114.117 188.824 114.21 189.102C114.303 189.38 114.326 189.702 114.28 190.067C114.21 190.605 114.016 191.076 113.698 191.481C113.381 191.883 112.956 192.203 112.425 192.44C111.894 192.675 111.273 192.807 110.564 192.835C109.86 192.863 109.261 192.779 108.767 192.583C108.274 192.387 107.908 192.081 107.671 191.667C107.436 191.25 107.351 190.726 107.416 190.095L109.2 190.024C109.18 190.317 109.231 190.56 109.355 190.751C109.482 190.939 109.665 191.078 109.904 191.168C110.143 191.255 110.422 191.293 110.74 191.28C111.055 191.267 111.333 191.211 111.573 191.11C111.817 191.009 112.012 190.875 112.159 190.707C112.307 190.539 112.393 190.349 112.419 190.138C112.446 189.94 112.41 189.777 112.311 189.647C112.213 189.518 112.058 189.41 111.847 189.325C111.639 189.236 111.382 189.161 111.075 189.1L110.155 188.898C109.444 188.747 108.902 188.489 108.527 188.123C108.152 187.757 108.004 187.25 108.081 186.601C108.152 186.07 108.355 185.6 108.689 185.191C109.026 184.779 109.458 184.454 109.983 184.214C110.511 183.971 111.093 183.836 111.729 183.811C112.376 183.785 112.927 183.875 113.381 184.081C113.835 184.285 114.172 184.581 114.391 184.971C114.61 185.36 114.69 185.82 114.631 186.351L112.864 186.422Z" fill="black"/>
<path d="M130.228 185.458C130.286 186.398 130.166 187.232 129.868 187.959C129.573 188.686 129.143 189.282 128.579 189.746C128.017 190.21 127.367 190.52 126.627 190.676C125.852 190.84 125.142 190.805 124.497 190.573C123.856 190.339 123.331 189.917 122.925 189.306C122.517 188.693 122.28 187.9 122.214 186.927C122.149 185.985 122.266 185.151 122.564 184.423C122.861 183.693 123.293 183.094 123.86 182.626C124.426 182.156 125.08 181.842 125.822 181.685C126.592 181.523 127.298 181.56 127.941 181.796C128.586 182.031 129.111 182.458 129.516 183.074C129.924 183.688 130.161 184.483 130.228 185.458ZM128.381 185.626C128.34 185.022 128.221 184.533 128.022 184.16C127.825 183.784 127.565 183.522 127.241 183.376C126.918 183.229 126.546 183.2 126.126 183.289C125.67 183.385 125.279 183.587 124.952 183.894C124.627 184.2 124.385 184.597 124.226 185.083C124.068 185.566 124.012 186.125 124.057 186.76C124.095 187.367 124.213 187.856 124.412 188.226C124.613 188.596 124.876 188.853 125.202 188.996C125.53 189.136 125.902 189.162 126.319 189.074C126.772 188.978 127.16 188.78 127.483 188.48C127.808 188.176 128.05 187.784 128.208 187.304C128.365 186.821 128.423 186.261 128.381 185.626Z" fill="black"/>
<path d="M136.695 178.512L138.447 177.933L139.548 183.533C139.672 184.162 139.637 184.76 139.443 185.326C139.249 185.892 138.92 186.393 138.456 186.827C137.99 187.259 137.413 187.589 136.725 187.816C136.038 188.043 135.411 188.111 134.846 188.02C134.28 187.926 133.809 187.69 133.43 187.313C133.052 186.935 132.801 186.432 132.678 185.804L131.577 180.203L133.329 179.624L134.395 185.07C134.463 185.398 134.591 185.666 134.779 185.876C134.969 186.085 135.205 186.221 135.486 186.284C135.768 186.346 136.077 186.322 136.414 186.21C136.754 186.098 137.035 185.927 137.259 185.698C137.485 185.468 137.641 185.202 137.728 184.902C137.818 184.6 137.829 184.285 137.761 183.958L136.695 178.512Z" fill="black"/>
<path d="M142.783 185.354L140.104 177.002L143.242 175.587C143.843 175.316 144.391 175.196 144.887 175.228C145.384 175.259 145.811 175.429 146.165 175.739C146.521 176.046 146.789 176.476 146.969 177.029C147.147 177.584 147.185 178.112 147.082 178.612C146.982 179.112 146.751 179.566 146.387 179.976C146.025 180.382 145.539 180.723 144.927 180.998L142.826 181.946L142.379 180.523L144.205 179.699C144.526 179.555 144.778 179.388 144.962 179.199C145.146 179.011 145.259 178.801 145.303 178.57C145.349 178.337 145.327 178.084 145.237 177.81C145.147 177.53 145.019 177.32 144.854 177.18C144.688 177.037 144.483 176.965 144.239 176.962C143.994 176.958 143.711 177.028 143.39 177.173L142.256 177.684L144.465 184.595L142.783 185.354ZM145.858 179.617L149.057 182.525L147.2 183.362L144.043 180.435L145.858 179.617Z" fill="black"/>
<path d="M156.122 178.289L152.007 170.567L154.871 168.656C155.419 168.29 155.946 168.09 156.452 168.055C156.959 168.017 157.42 168.127 157.833 168.386C158.248 168.641 158.592 169.024 158.868 169.536C159.142 170.051 159.28 170.574 159.281 171.105C159.282 171.632 159.145 172.137 158.868 172.618C158.591 173.099 158.172 173.527 157.612 173.901L155.786 175.119L155.087 173.812L156.664 172.759C156.962 172.56 157.179 172.343 157.315 172.105C157.451 171.864 157.515 171.615 157.507 171.358C157.497 171.099 157.424 170.843 157.287 170.591C157.149 170.332 156.981 170.139 156.783 170.012C156.585 169.885 156.361 169.833 156.111 169.857C155.862 169.877 155.589 169.985 155.294 170.182L154.259 170.873L157.657 177.265L156.122 178.289Z" fill="black"/>
<path d="M163.643 172.891L158.717 165.668L161.367 163.471C161.875 163.05 162.373 162.788 162.862 162.684C163.354 162.578 163.815 162.625 164.245 162.824C164.676 163.019 165.055 163.355 165.384 163.833C165.711 164.313 165.895 164.805 165.935 165.309C165.977 165.812 165.879 166.307 165.641 166.796C165.403 167.28 165.026 167.736 164.509 168.164L162.735 169.636L161.905 168.403L163.447 167.124C163.718 166.899 163.916 166.672 164.042 166.443C164.167 166.214 164.219 165.983 164.197 165.751C164.177 165.517 164.085 165.283 163.921 165.046C163.756 164.804 163.574 164.639 163.375 164.55C163.174 164.459 162.955 164.446 162.718 164.51C162.479 164.572 162.224 164.715 161.952 164.94L160.995 165.734L165.063 171.713L163.643 172.891ZM165.027 166.598L168.941 168.498L167.373 169.798L163.495 167.868L165.027 166.598Z" fill="black"/>
<path d="M166.18 158.797L171.74 165.541L170.43 166.84L164.87 160.097L166.18 158.797Z" fill="black"/>
<path d="M176.958 152.987C177.617 153.649 178.065 154.345 178.304 155.074C178.545 155.801 178.594 156.515 178.452 157.217C178.311 157.916 178 158.557 177.519 159.139C177.014 159.75 176.431 160.172 175.771 160.406C175.113 160.637 174.425 160.654 173.706 160.456C172.985 160.257 172.281 159.816 171.595 159.134C170.931 158.475 170.479 157.781 170.24 157.052C169.999 156.321 169.949 155.603 170.091 154.897C170.231 154.19 170.542 153.544 171.026 152.96C171.527 152.353 172.108 151.935 172.768 151.706C173.43 151.474 174.122 151.46 174.844 151.663C175.565 151.862 176.27 152.304 176.958 152.987ZM175.611 154.277C175.185 153.853 174.773 153.565 174.373 153.413C173.972 153.257 173.597 153.227 173.246 153.322C172.895 153.417 172.583 153.63 172.31 153.961C172.013 154.32 171.836 154.717 171.778 155.152C171.722 155.584 171.789 156.032 171.98 156.494C172.171 156.953 172.491 157.404 172.94 157.848C173.366 158.275 173.778 158.564 174.175 158.715C174.575 158.863 174.95 158.888 175.3 158.789C175.649 158.686 175.96 158.47 176.231 158.142C176.526 157.785 176.703 157.393 176.763 156.966C176.821 156.535 176.756 156.091 176.568 155.634C176.377 155.175 176.058 154.723 175.611 154.277Z" fill="black"/>
<path d="M181.174 153.932L174.324 148.492L176.193 145.601C176.551 145.047 176.947 144.648 177.383 144.403C177.819 144.155 178.273 144.063 178.742 144.125C179.211 144.183 179.673 144.392 180.129 144.751C180.584 145.112 180.906 145.528 181.094 145.999C181.285 146.466 181.339 146.969 181.258 147.507C181.176 148.042 180.953 148.59 180.589 149.153L179.337 151.089L178.178 150.157L179.265 148.475C179.457 148.179 179.578 147.903 179.629 147.646C179.68 147.39 179.661 147.154 179.57 146.939C179.482 146.721 179.324 146.524 179.097 146.347C178.868 146.165 178.645 146.061 178.428 146.035C178.209 146.008 177.997 146.06 177.79 146.192C177.581 146.323 177.381 146.536 177.189 146.832L176.514 147.877L182.176 152.382L181.174 153.932ZM180.614 147.501L184.911 148.153L183.805 149.863L179.534 149.172L180.614 147.501Z" fill="black"/>
<path d="M179.268 139.85L186.573 144.677L185.72 146.313L178.414 141.486L179.268 139.85Z" fill="black"/>
<path d="M181.947 137.563L180.603 136.836L183.276 130.185L184.621 130.913L183.624 133.392L190.001 136.82L189.321 138.512L182.944 135.084L181.947 137.563Z" fill="black"/>
<path d="M183.429 128.933L183.962 126.936L187.983 126.433L188.008 126.342L185.011 123.008L185.544 121.011L189.989 126.217L192.867 127.387L192.394 129.157L189.516 127.987L183.429 128.933Z" fill="black"/>
<path d="M49.472 134V66.8H88.736C92.704 66.8 96.32 67.728 99.584 69.584C102.912 71.376 105.568 73.84 107.552 76.976C109.536 80.112 110.528 83.6 110.528 87.44C110.528 91.472 109.44 95.152 107.264 98.48C105.088 101.744 102.208 104.368 98.624 106.352C95.04 108.272 91.104 109.232 86.816 109.232H59.84V134H49.472ZM59.84 99.248H85.856C88.288 99.248 90.528 98.704 92.576 97.616C94.688 96.528 96.352 95.088 97.568 93.296C98.848 91.504 99.488 89.552 99.488 87.44C99.488 85.456 98.848 83.664 97.568 82.064C96.352 80.464 94.688 79.184 92.576 78.224C90.528 77.264 88.288 76.784 85.856 76.784H59.84V99.248ZM138.092 134.96C132.716 134.96 127.66 134.16 122.924 132.56C118.252 130.896 114.124 128.56 110.54 125.552C107.02 122.48 104.268 118.832 102.284 114.608C100.3 110.32 99.308 105.584 99.308 100.4C99.308 95.472 100.332 90.928 102.38 86.768C104.492 82.608 107.34 78.992 110.924 75.92C114.508 72.848 118.636 70.48 123.308 68.816C127.98 67.088 132.908 66.224 138.092 66.224C142.444 66.224 146.604 66.8 150.572 67.952C154.54 69.04 158.124 70.448 161.324 72.176C164.588 73.84 167.18 75.6 169.1 77.456L162.956 86.192C160.652 84.272 158.188 82.576 155.564 81.104C152.94 79.632 150.092 78.48 147.02 77.648C144.012 76.816 140.716 76.4 137.132 76.4C133.74 76.4 130.412 76.976 127.148 78.128C123.948 79.216 121.036 80.816 118.412 82.928C115.788 84.976 113.708 87.504 112.172 90.512C110.636 93.456 109.868 96.752 109.868 100.4C109.868 104.432 110.668 107.984 112.268 111.056C113.868 114.064 116.044 116.592 118.796 118.64C121.548 120.688 124.652 122.256 128.108 123.344C131.564 124.368 135.148 124.88 138.86 124.88C142.7 124.88 146.124 124.4 149.132 123.44C152.14 122.416 154.828 121.168 157.196 119.696C159.564 118.224 161.708 116.784 163.628 115.376L168.62 124.016C166.828 125.488 164.364 127.088 161.228 128.816C158.156 130.544 154.636 132.016 150.668 133.232C146.764 134.384 142.572 134.96 138.092 134.96Z" fill="black"/>
<ellipse cx="60" cy="76.5" rx="16" ry="14.5" fill="white"/>
<ellipse cx="60" cy="75" rx="7" ry="6" fill="#0A0000"/>
<defs>
<linearGradient id="paint0_linear_2_8" x1="139" y1="-51" x2="3.79227e-06" y2="219" gradientUnits="userSpaceOnUse">
<stop offset="0.18788" stop-color="#F1C320"/>
<stop offset="0.642994" stop-color="#C29800" stop-opacity="0.858449"/>
<stop offset="1" stop-color="#F8C100" stop-opacity="0"/>
</linearGradient>
</defs>
</svg>
